<svg xmlns="http://www.w3.org/2000/svg" xmlns:xlink="http://www.w3.org/1999/xlink" width="2480" zoomAndPan="magnify" viewBox="0 0 1860 1859.999923" height="2480" preserveAspectRatio="xMidYMid meet" version="1.0"><defs><clipPath id="1806b6dd78"><path d="M 646.6875 602.402344 L 900.367188 602.402344 L 900.367188 691.730469 L 646.6875 691.730469 Z M 646.6875 602.402344 " clip-rule="nonzero"/></clipPath><clipPath id="4e2f55da44"><path d="M 0.6875 0.402344 L 254.367188 0.402344 L 254.367188 89.730469 L 0.6875 89.730469 Z M 0.6875 0.402344 " clip-rule="nonzero"/></clipPath><clipPath id="aa0470ace0"><rect x="0" width="255" y="0" height="90"/></clipPath><clipPath id="e975152624"><path d="M 675.421875 581 L 848.671875 581 L 848.671875 731 L 675.421875 731 Z M 675.421875 581 " clip-rule="nonzero"/></clipPath></defs><path fill="#000000" d="M 128.601562 425.203125 L 237.355469 425.203125 L 237.355469 604.730469 L 411.199219 604.730469 L 411.199219 425.203125 L 519.738281 425.203125 L 519.738281 876.367188 L 411.199219 876.367188 L 411.199219 693.855469 L 235.921875 693.855469 L 235.921875 876.367188 L 128.601562 876.367188 Z M 128.601562 425.203125 " fill-opacity="1" fill-rule="nonzero"/><path fill="#e00914" d="M 992.554688 651.5625 C 992.554688 655.355469 992.460938 659.148438 992.273438 662.9375 C 992.089844 666.726562 991.808594 670.511719 991.4375 674.285156 C 991.066406 678.0625 990.601562 681.828125 990.042969 685.582031 C 989.488281 689.335938 988.839844 693.074219 988.097656 696.792969 C 987.359375 700.515625 986.527344 704.21875 985.605469 707.898438 C 984.683594 711.578125 983.671875 715.234375 982.570312 718.867188 C 981.46875 722.496094 980.28125 726.097656 979 729.671875 C 977.722656 733.246094 976.359375 736.785156 974.90625 740.289062 C 973.453125 743.796875 971.917969 747.261719 970.292969 750.695312 C 968.671875 754.125 966.964844 757.511719 965.175781 760.859375 C 963.386719 764.207031 961.519531 767.507812 959.566406 770.761719 C 957.617188 774.015625 955.589844 777.21875 953.480469 780.375 C 951.371094 783.53125 949.1875 786.632812 946.925781 789.679688 C 944.667969 792.726562 942.332031 795.71875 939.925781 798.652344 C 937.519531 801.585938 935.042969 804.457031 932.492188 807.269531 C 929.945312 810.082031 927.328125 812.828125 924.644531 815.511719 C 921.964844 818.195312 919.214844 820.808594 916.402344 823.359375 C 913.59375 825.90625 910.71875 828.382812 907.789062 830.792969 C 904.855469 833.199219 901.863281 835.53125 898.816406 837.792969 C 895.769531 840.054688 892.667969 842.238281 889.511719 844.347656 C 886.355469 846.453125 883.152344 848.484375 879.898438 850.433594 C 876.644531 852.386719 873.34375 854.253906 869.996094 856.042969 C 866.648438 857.832031 863.261719 859.539062 859.832031 861.160156 C 856.402344 862.78125 852.933594 864.320312 849.429688 865.773438 C 845.921875 867.222656 842.382812 868.589844 838.808594 869.867188 C 835.238281 871.144531 831.636719 872.335938 828.003906 873.4375 C 824.375 874.539062 820.71875 875.550781 817.039062 876.472656 C 813.355469 877.394531 809.65625 878.226562 805.933594 878.964844 C 802.210938 879.707031 798.476562 880.355469 794.722656 880.910156 C 790.96875 881.46875 787.203125 881.933594 783.425781 882.304688 C 779.652344 882.675781 775.867188 882.957031 772.078125 883.140625 C 768.289062 883.328125 764.496094 883.421875 760.703125 883.421875 C 756.90625 883.421875 753.113281 883.328125 749.324219 883.140625 C 745.535156 882.957031 741.753906 882.675781 737.976562 882.304688 C 734.199219 881.933594 730.433594 881.46875 726.683594 880.910156 C 722.929688 880.355469 719.191406 879.707031 715.46875 878.964844 C 711.746094 878.226562 708.046875 877.394531 704.367188 876.472656 C 700.683594 875.550781 697.03125 874.539062 693.398438 873.4375 C 689.765625 872.335938 686.164062 871.144531 682.59375 869.867188 C 679.019531 868.589844 675.480469 867.222656 671.976562 865.773438 C 668.46875 864.320312 665.003906 862.78125 661.570312 861.160156 C 658.140625 859.539062 654.753906 857.832031 651.40625 856.042969 C 648.0625 854.253906 644.761719 852.386719 641.503906 850.433594 C 638.25 848.484375 635.046875 846.453125 631.890625 844.347656 C 628.734375 842.238281 625.636719 840.054688 622.585938 837.792969 C 619.539062 835.53125 616.550781 833.199219 613.617188 830.792969 C 610.683594 828.382812 607.8125 825.90625 605 823.359375 C 602.1875 820.808594 599.441406 818.195312 596.757812 815.511719 C 594.074219 812.828125 591.457031 810.082031 588.910156 807.269531 C 586.363281 804.457031 583.882812 801.585938 581.476562 798.652344 C 579.070312 795.71875 576.734375 792.726562 574.476562 789.679688 C 572.214844 786.632812 570.03125 783.53125 567.921875 780.375 C 565.816406 777.21875 563.785156 774.015625 561.835938 770.761719 C 559.882812 767.507812 558.015625 764.207031 556.226562 760.859375 C 554.4375 757.511719 552.730469 754.125 551.109375 750.695312 C 549.488281 747.261719 547.949219 743.796875 546.496094 740.289062 C 545.046875 736.785156 543.679688 733.246094 542.402344 729.671875 C 541.125 726.097656 539.933594 722.496094 538.832031 718.867188 C 537.730469 715.234375 536.71875 711.578125 535.796875 707.898438 C 534.875 704.21875 534.042969 700.515625 533.304688 696.792969 C 532.5625 693.074219 531.914062 689.335938 531.359375 685.582031 C 530.800781 681.828125 530.335938 678.0625 529.964844 674.285156 C 529.59375 670.511719 529.316406 666.726562 529.128906 662.9375 C 528.941406 659.148438 528.847656 655.355469 528.847656 651.5625 C 528.847656 647.765625 528.941406 643.972656 529.128906 640.183594 C 529.316406 636.394531 529.59375 632.609375 529.964844 628.835938 C 530.335938 625.058594 530.800781 621.292969 531.359375 617.539062 C 531.914062 613.785156 532.5625 610.046875 533.304688 606.328125 C 534.042969 602.605469 534.875 598.902344 535.796875 595.222656 C 536.71875 591.542969 537.730469 587.886719 538.832031 584.253906 C 539.933594 580.625 541.125 577.023438 542.402344 573.449219 C 543.679688 569.875 545.046875 566.335938 546.496094 562.832031 C 547.949219 559.324219 549.488281 555.859375 551.109375 552.425781 C 552.730469 548.996094 554.4375 545.609375 556.226562 542.261719 C 558.015625 538.914062 559.882812 535.613281 561.835938 532.359375 C 563.785156 529.105469 565.816406 525.902344 567.921875 522.746094 C 570.03125 519.589844 572.214844 516.488281 574.476562 513.441406 C 576.734375 510.394531 579.070312 507.402344 581.476562 504.46875 C 583.882812 501.535156 586.363281 498.664062 588.910156 495.851562 C 591.457031 493.039062 594.074219 490.292969 596.757812 487.609375 C 599.441406 484.925781 602.1875 482.3125 605 479.761719 C 607.8125 477.214844 610.683594 474.738281 613.617188 472.328125 C 616.550781 469.921875 619.539062 467.589844 622.585938 465.328125 C 625.636719 463.066406 628.734375 460.882812 631.890625 458.773438 C 635.046875 456.667969 638.25 454.636719 641.503906 452.6875 C 644.761719 450.734375 648.0625 448.867188 651.40625 447.078125 C 654.753906 445.289062 658.140625 443.582031 661.570312 441.960938 C 665.003906 440.339844 668.46875 438.800781 671.976562 437.347656 C 675.480469 435.898438 679.019531 434.53125 682.59375 433.253906 C 686.164062 431.976562 689.765625 430.785156 693.398438 429.683594 C 697.03125 428.582031 700.683594 427.570312 704.367188 426.648438 C 708.046875 425.726562 711.746094 424.894531 715.46875 424.15625 C 719.191406 423.414062 722.929688 422.765625 726.683594 422.210938 C 730.433594 421.652344 734.199219 421.1875 737.976562 420.816406 C 741.753906 420.445312 745.535156 420.164062 749.324219 419.980469 C 753.113281 419.792969 756.90625 419.699219 760.703125 419.699219 C 764.496094 419.699219 768.289062 419.792969 772.078125 419.980469 C 775.867188 420.164062 779.652344 420.445312 783.425781 420.816406 C 787.203125 421.1875 790.96875 421.652344 794.722656 422.210938 C 798.476562 422.765625 802.210938 423.414062 805.933594 424.15625 C 809.65625 424.894531 813.355469 425.726562 817.039062 426.648438 C 820.71875 427.570312 824.375 428.582031 828.003906 429.683594 C 831.636719 430.785156 835.238281 431.976562 838.808594 433.253906 C 842.382812 434.53125 845.921875 435.898438 849.429688 437.347656 C 852.933594 438.800781 856.402344 440.339844 859.832031 441.960938 C 863.261719 443.582031 866.648438 445.289062 869.996094 447.078125 C 873.34375 448.867188 876.644531 450.734375 879.898438 452.6875 C 883.152344 454.636719 886.355469 456.667969 889.511719 458.773438 C 892.667969 460.882812 895.769531 463.066406 898.816406 465.328125 C 901.863281 467.589844 904.855469 469.921875 907.789062 472.328125 C 910.71875 474.738281 913.59375 477.214844 916.402344 479.761719 C 919.214844 482.3125 921.964844 484.925781 924.644531 487.609375 C 927.328125 490.292969 929.945312 493.039062 932.492188 495.851562 C 935.042969 498.664062 937.519531 501.535156 939.925781 504.46875 C 942.332031 507.402344 944.667969 510.394531 946.925781 513.441406 C 949.1875 516.488281 951.371094 519.589844 953.480469 522.746094 C 955.589844 525.902344 957.617188 529.105469 959.566406 532.359375 C 961.519531 535.613281 963.386719 538.914062 965.175781 542.261719 C 966.964844 545.609375 968.671875 548.996094 970.292969 552.425781 C 971.917969 555.859375 973.453125 559.324219 974.90625 562.832031 C 976.359375 566.335938 977.722656 569.875 979 573.449219 C 980.277344 577.023438 981.46875 580.625 982.570312 584.253906 C 983.671875 587.886719 984.683594 591.542969 985.605469 595.222656 C 986.527344 598.902344 987.359375 602.605469 988.097656 606.328125 C 988.839844 610.046875 989.488281 613.785156 990.042969 617.539062 C 990.601562 621.292969 991.066406 625.058594 991.4375 628.835938 C 991.808594 632.609375 992.089844 636.394531 992.273438 640.183594 C 992.460938 643.972656 992.554688 647.765625 992.554688 651.5625 Z M 992.554688 651.5625 " fill-opacity="1" fill-rule="nonzero"/><path fill="#000000" d="M 1616.339844 601.609375 C 1616.085938 601.609375 1615.894531 601.4375 1615.640625 601.4375 L 1527.316406 601.4375 C 1509.601562 601.4375 1492.851562 592.382812 1483.996094 577.070312 C 1476.105469 563.445312 1478.007812 551.292969 1483.257812 541.542969 C 1491.574219 526.09375 1508.125 516.886719 1525.667969 516.886719 L 1703.695312 516.886719 L 1703.695312 429.121094 L 1497.855469 429.121094 C 1485.429688 429.121094 1466.085938 433.5 1454.863281 438.851562 C 1316.898438 504.558594 1382.585938 664.121094 1444.417969 683.328125 C 1462.34375 688.910156 1484.886719 694.222656 1501.226562 694.222656 L 1579.085938 697.363281 C 1586.507812 697.363281 1593.796875 699.417969 1600.097656 703.371094 C 1646.167969 732.3125 1619.167969 763.246094 1601.296875 777.820312 C 1594.476562 783.367188 1585.929688 786.332031 1577.128906 786.332031 L 1352.175781 786.332031 C 1344.792969 786.332031 1337.910156 782.53125 1333.976562 776.273438 L 1304.457031 729.265625 C 1300.636719 723.179688 1299.746094 713.953125 1305.542969 709.730469 C 1398.226562 642.199219 1371.597656 510.605469 1329.964844 474.574219 C 1294.570312 443.949219 1264.042969 429.160156 1217.234375 429.160156 L 1003 429.160156 L 1003 876.425781 L 1110.011719 876.425781 L 1110.011719 756.675781 C 1110.011719 748.84375 1116.371094 742.488281 1124.199219 742.488281 L 1177.714844 742.488281 C 1186.222656 742.488281 1194.09375 747.042969 1198.335938 754.40625 L 1244.71875 834.90625 C 1261.949219 866.230469 1315.214844 876.425781 1315.214844 876.425781 L 1606.492188 876.425781 C 1618.277344 876.425781 1629.925781 873.921875 1640.722656 869.15625 C 1806.421875 795.964844 1713.734375 604.539062 1616.320312 601.667969 Z M 1260.226562 610.082031 C 1248.1875 636.324219 1221.480469 652.742188 1192.601562 652.742188 L 1109.507812 652.742188 L 1109.507812 515.78125 L 1197.542969 515.78125 C 1223.574219 515.78125 1247.917969 534.679688 1259.566406 557.980469 C 1266.679688 572.1875 1269.492188 589.882812 1260.226562 610.082031 Z M 1260.226562 610.082031 " fill-opacity="1" fill-rule="nonzero"/><path fill="#000000" d="M 128.601562 1440.394531 L 128.601562 991.734375 L 237.472656 991.734375 L 237.472656 1172.210938 L 351.304688 1172.210938 C 361.460938 1172.210938 371.582031 1170.195312 380.75 1165.851562 C 395.363281 1158.953125 411.835938 1144.667969 412.921875 1115.261719 C 414.492188 1072.96875 414.492188 1079.230469 412.921875 991.734375 L 520.148438 991.734375 L 520.148438 1120.804688 C 520.148438 1126.078125 519.71875 1131.371094 518.75 1136.566406 C 514.992188 1157.089844 501.328125 1203.574219 452.871094 1232.742188 C 449.789062 1234.605469 448.566406 1238.460938 450.078125 1241.71875 L 496.171875 1340.6875 C 498.882812 1346.523438 504.738281 1350.265625 511.171875 1350.265625 L 539.78125 1350.265625 L 539.78125 1439.679688 L 471.960938 1439.679688 C 464.015625 1439.679688 456.144531 1438.011719 448.933594 1434.65625 C 431.9375 1426.808594 409.761719 1406.648438 395.671875 1375.324219 L 344.132812 1269.28125 C 342.117188 1265.152344 337.933594 1262.535156 333.339844 1262.535156 L 243.054688 1262.535156 C 239.972656 1262.535156 237.453125 1265.035156 237.453125 1268.136719 L 237.453125 1439.679688 L 128.582031 1440.414062 Z M 128.601562 1440.394531 " fill-opacity="1" fill-rule="nonzero"/><path fill="#000000" d="M 859.667969 1057.230469 C 849.628906 1029.765625 829.820312 1006.738281 803.652344 993.671875 C 774 978.882812 747.152344 981.828125 725.621094 990.707031 C 696.605469 1002.667969 674.351562 1026.875 663.632812 1056.375 L 556.410156 1350.246094 L 536.699219 1350.246094 L 536.699219 1439.542969 L 636.964844 1439.542969 L 663.578125 1360.925781 C 665.457031 1355.476562 670.59375 1351.8125 676.347656 1351.8125 L 845.132812 1351.8125 C 852.671875 1351.8125 859.339844 1356.738281 861.546875 1363.96875 L 884.265625 1438.457031 L 986.292969 1438.457031 L 986.292969 1416.109375 C 986.292969 1407.773438 984.820312 1399.515625 981.972656 1391.683594 L 859.6875 1057.230469 Z M 820.730469 1262.515625 L 698.347656 1262.515625 C 695.132812 1262.515625 692.863281 1259.335938 693.929688 1256.292969 L 752.871094 1085.492188 C 752.871094 1085.492188 760.894531 1069.828125 771.769531 1085.492188 L 825.207031 1256.429688 C 826.15625 1259.453125 823.886719 1262.515625 820.730469 1262.515625 Z M 820.730469 1262.515625 " fill-opacity="1" fill-rule="nonzero"/><path fill="#000000" d="M 1724.261719 1350.554688 L 1685.242188 1350.554688 C 1677.859375 1350.554688 1670.976562 1346.753906 1667.042969 1340.496094 L 1637.503906 1293.453125 C 1633.125 1286.472656 1635.003906 1276.78125 1641.554688 1271.78125 C 1730.753906 1203.648438 1704.257812 1074.460938 1663.050781 1038.816406 C 1627.660156 1008.191406 1597.132812 993.402344 1550.324219 993.402344 L 1336.089844 993.402344 L 1336.089844 1440.667969 L 1410.867188 1440.667969 C 1428.660156 1440.667969 1443.097656 1426.246094 1443.097656 1408.433594 L 1443.097656 1320.898438 C 1443.097656 1313.066406 1449.457031 1306.710938 1457.285156 1306.710938 L 1510.800781 1306.710938 C 1519.3125 1306.710938 1527.179688 1311.265625 1531.425781 1318.628906 L 1577.808594 1399.128906 C 1595.039062 1430.453125 1648.300781 1440.648438 1648.300781 1440.648438 L 1724.027344 1440.648438 L 1724.261719 1350.574219 Z M 1593.273438 1174.34375 C 1581.238281 1200.585938 1554.527344 1217.003906 1525.648438 1217.003906 L 1442.554688 1217.003906 L 1442.554688 1080.042969 L 1530.589844 1080.042969 C 1556.621094 1080.042969 1580.964844 1098.941406 1592.613281 1122.242188 C 1599.726562 1136.449219 1602.539062 1154.144531 1593.273438 1174.34375 Z M 1593.273438 1174.34375 " fill-opacity="1" fill-rule="nonzero"/><path fill="#000000" d="M 1003.019531 993.304688 L 1001.933594 1440.628906 L 1376.945312 1440.628906 L 1376.945312 993.304688 Z M 1270.59375 1293.335938 C 1246.871094 1329.679688 1205.199219 1350.246094 1161.800781 1350.246094 L 1106.890625 1350.246094 L 1106.890625 1079.230469 C 1106.890625 1079.230469 1188.179688 1079.773438 1197.792969 1082.582031 C 1293.292969 1110.550781 1315.234375 1224.914062 1270.59375 1293.335938 Z M 1270.59375 1293.335938 " fill-opacity="1" fill-rule="nonzero"/><path fill="#ffffff" d="M 767.371094 634.503906 L 776.90625 634.503906 C 779.386719 634.503906 781.382812 632.507812 781.382812 630.046875 C 781.382812 627.5625 779.386719 625.566406 776.90625 625.566406 L 761.613281 625.566406 C 756.417969 625.566406 751.4375 629.792969 751.4375 634.988281 L 751.4375 664.390625 L 747.890625 664.390625 C 739.285156 665.207031 740.96875 652.140625 740.96875 652.140625 C 749.304688 645.941406 748.683594 638.652344 746.804688 633.496094 C 745.058594 628.707031 740.429688 625.566406 735.332031 625.566406 L 706.644531 625.566406 L 706.644531 673.695312 L 720.039062 673.695312 L 720.039062 662.917969 C 720.039062 661.464844 721.199219 660.300781 722.652344 660.28125 L 728.566406 660.246094 C 729.746094 660.246094 730.773438 661.097656 730.949219 662.28125 C 731.550781 666.621094 733.992188 669.78125 735.988281 671.640625 C 737.421875 672.980469 739.34375 673.714844 741.300781 673.714844 L 751.457031 673.714844 L 751.457031 671.503906 C 751.457031 670.265625 752.464844 669.257812 753.703125 669.257812 C 754.945312 669.257812 755.953125 670.265625 755.953125 671.503906 C 755.953125 672.746094 756.941406 673.714844 758.164062 673.714844 L 776.460938 673.714844 C 778.84375 673.714844 780.78125 671.777344 780.78125 669.394531 C 780.78125 666.351562 778.320312 663.886719 775.277344 663.886719 L 768.300781 663.886719 C 766.398438 663.886719 764.851562 662.335938 764.851562 660.4375 L 764.851562 658.808594 C 764.851562 656.230469 766.941406 654.15625 769.5 654.15625 L 777.3125 654.15625 C 779.5625 654.15625 781.402344 652.316406 781.402344 650.066406 L 781.402344 649.058594 C 781.402344 646.40625 779.230469 644.234375 776.574219 644.234375 L 767.445312 644.234375 C 765.355469 644.234375 763.648438 642.527344 763.648438 640.433594 L 763.648438 638.246094 C 763.648438 636.191406 765.316406 634.523438 767.390625 634.523438 Z M 729.300781 645.996094 L 720.058594 645.996094 C 720.058594 645.996094 720.058594 633.785156 720.058594 633.785156 L 727.460938 633.785156 C 736.066406 633.671875 735.816406 646.191406 729.300781 645.996094 Z M 729.300781 645.996094 " fill-opacity="1" fill-rule="nonzero"/><path fill="#ffffff" d="M 822.785156 659.722656 C 822.589844 659.605469 822.414062 659.507812 822.222656 659.390625 C 820.089844 658.132812 817.414062 658.382812 815.476562 659.933594 C 813.382812 661.601562 810.613281 662.472656 807.761719 662.472656 C 800.398438 662.472656 795.183594 657.046875 795.125 649.699219 C 795.066406 642.355469 800.398438 636.808594 807.414062 636.460938 C 810.59375 636.304688 813.265625 637.371094 815.4375 639.136719 C 817.355469 640.6875 819.992188 640.957031 822.125 639.757812 L 822.335938 639.640625 C 826.019531 637.585938 826.425781 632.429688 823.113281 629.832031 C 818.90625 626.519531 813.675781 624.445312 808.015625 624.445312 C 794.117188 624.445312 782.738281 634.582031 782.875 649.582031 C 783.011719 665.59375 794.136719 674.722656 808.015625 674.722656 C 808.015625 674.722656 816.347656 675.109375 823.5 669.453125 C 826.757812 666.875 826.371094 661.8125 822.804688 659.722656 Z M 822.785156 659.722656 " fill-opacity="1" fill-rule="nonzero"/><g clip-path="url(#1806b6dd78)"><g transform="matrix(1, 0, 0, 1, 646, 602)"><g clip-path="url(#aa0470ace0)"><g clip-path="url(#4e2f55da44)"><path fill="#e00914" d="M 0.6875 0.402344 L 254.359375 0.402344 L 254.359375 89.730469 L 0.6875 89.730469 Z M 0.6875 0.402344 " fill-opacity="1" fill-rule="nonzero"/></g></g></g></g><path fill="#000000" d="M 787.421875 658.460938 C 787.816406 658.460938 788.199219 658.386719 788.5625 658.234375 C 788.929688 658.082031 789.25 657.867188 789.53125 657.589844 C 789.808594 657.308594 790.023438 656.988281 790.175781 656.621094 C 790.328125 656.257812 790.402344 655.878906 790.402344 655.484375 C 790.402344 655.089844 790.328125 654.707031 790.175781 654.34375 C 790.023438 653.980469 789.808594 653.65625 789.53125 653.378906 C 789.25 653.097656 788.929688 652.882812 788.5625 652.730469 C 788.199219 652.582031 787.816406 652.503906 787.421875 652.503906 C 787.027344 652.503906 786.644531 652.582031 786.28125 652.730469 C 785.914062 652.882812 785.59375 653.097656 785.3125 653.378906 C 785.035156 653.65625 784.816406 653.980469 784.667969 654.34375 C 784.515625 654.707031 784.441406 655.089844 784.441406 655.484375 C 784.441406 655.878906 784.515625 656.257812 784.667969 656.621094 C 784.816406 656.988281 785.035156 657.308594 785.3125 657.589844 C 785.59375 657.867188 785.914062 658.082031 786.28125 658.234375 C 786.644531 658.386719 787.027344 658.460938 787.421875 658.460938 Z M 787.421875 658.460938 " fill-opacity="1" fill-rule="nonzero"/><path fill="#000000" d="M 733.507812 655.722656 C 733.507812 656.117188 733.582031 656.496094 733.734375 656.859375 C 733.886719 657.226562 734.101562 657.546875 734.382812 657.828125 C 734.660156 658.105469 734.984375 658.320312 735.347656 658.472656 C 735.714844 658.625 736.09375 658.699219 736.492188 658.699219 C 736.886719 658.699219 737.265625 658.625 737.632812 658.472656 C 737.996094 658.320312 738.320312 658.105469 738.597656 657.828125 C 738.878906 657.546875 739.09375 657.226562 739.246094 656.859375 C 739.398438 656.496094 739.472656 656.117188 739.472656 655.722656 C 739.472656 655.328125 739.398438 654.945312 739.246094 654.582031 C 739.09375 654.21875 738.878906 653.894531 738.597656 653.617188 C 738.320312 653.335938 737.996094 653.121094 737.632812 652.96875 C 737.265625 652.820312 736.886719 652.742188 736.492188 652.742188 C 736.09375 652.742188 735.714844 652.820312 735.347656 652.96875 C 734.984375 653.121094 734.660156 653.335938 734.382812 653.617188 C 734.101562 653.894531 733.886719 654.21875 733.734375 654.582031 C 733.582031 654.945312 733.507812 655.328125 733.507812 655.722656 Z M 733.507812 655.722656 " fill-opacity="1" fill-rule="nonzero"/><g clip-path="url(#e975152624)"><path fill="#000000" d="M 829.496094 647.5625 C 840.886719 645.238281 847.863281 628.683594 848.164062 628 C 848.492188 627.226562 848.492188 626.449219 848.164062 625.675781 C 847.796875 624.910156 847.210938 624.394531 846.402344 624.128906 L 801.199219 610.3125 C 801.855469 609.789062 802.464844 609.222656 803.035156 608.605469 C 803.601562 607.992188 804.117188 607.335938 804.585938 606.640625 C 805.054688 605.949219 805.464844 605.222656 805.820312 604.460938 C 806.171875 603.703125 806.46875 602.925781 806.703125 602.121094 C 806.9375 601.316406 807.109375 600.5 807.214844 599.671875 C 807.324219 598.839844 807.367188 598.007812 807.347656 597.171875 C 807.328125 596.335938 807.242188 595.503906 807.09375 594.679688 C 806.945312 593.859375 806.734375 593.050781 806.460938 592.257812 C 806.191406 591.46875 805.859375 590.703125 805.464844 589.964844 C 805.074219 589.222656 804.628906 588.515625 804.128906 587.847656 C 803.628906 587.175781 803.082031 586.546875 802.484375 585.957031 C 801.886719 585.371094 801.246094 584.832031 800.566406 584.34375 C 799.886719 583.855469 799.171875 583.421875 798.425781 583.042969 C 797.679688 582.664062 796.90625 582.34375 796.109375 582.085938 C 795.316406 581.824219 794.503906 581.628906 793.675781 581.492188 C 792.847656 581.355469 792.015625 581.285156 791.179688 581.277344 C 789.433594 581.234375 787.730469 581.464844 786.058594 581.972656 C 784.390625 582.484375 782.847656 583.242188 781.429688 584.257812 C 780.722656 583.746094 779.980469 583.292969 779.207031 582.894531 C 778.429688 582.5 777.625 582.167969 776.796875 581.898438 C 775.96875 581.628906 775.121094 581.425781 774.261719 581.292969 C 773.398438 581.15625 772.535156 581.085938 771.660156 581.085938 C 770.789062 581.085938 769.925781 581.15625 769.0625 581.292969 C 768.203125 581.425781 767.355469 581.628906 766.527344 581.898438 C 765.699219 582.167969 764.894531 582.5 764.117188 582.894531 C 763.34375 583.292969 762.601562 583.746094 761.894531 584.257812 C 761.191406 583.746094 760.449219 583.292969 759.671875 582.894531 C 758.898438 582.5 758.09375 582.167969 757.265625 581.898438 C 756.4375 581.628906 755.589844 581.425781 754.730469 581.292969 C 753.867188 581.15625 753.003906 581.085938 752.128906 581.085938 C 751.257812 581.085938 750.390625 581.15625 749.53125 581.292969 C 748.671875 581.425781 747.824219 581.628906 746.996094 581.898438 C 746.167969 582.167969 745.363281 582.5 744.585938 582.894531 C 743.8125 583.292969 743.070312 583.746094 742.363281 584.257812 C 740.945312 583.242188 739.402344 582.484375 737.730469 581.972656 C 736.0625 581.464844 734.359375 581.234375 732.613281 581.277344 C 731.765625 581.277344 730.925781 581.339844 730.085938 581.46875 C 729.25 581.59375 728.429688 581.789062 727.621094 582.042969 C 726.8125 582.300781 726.03125 582.617188 725.273438 582.996094 C 724.515625 583.371094 723.792969 583.808594 723.101562 584.296875 C 722.410156 584.789062 721.765625 585.328125 721.160156 585.921875 C 720.554688 586.511719 719.996094 587.144531 719.488281 587.824219 C 718.984375 588.5 718.53125 589.214844 718.136719 589.960938 C 717.742188 590.710938 717.40625 591.484375 717.132812 592.285156 C 716.855469 593.085938 716.644531 593.902344 716.5 594.734375 C 716.351562 595.566406 716.269531 596.40625 716.253906 597.25 C 716.238281 598.097656 716.285156 598.9375 716.402344 599.777344 C 716.515625 600.613281 716.695312 601.4375 716.9375 602.25 C 717.183594 603.058594 717.488281 603.84375 717.851562 604.609375 C 718.21875 605.371094 718.640625 606.101562 719.121094 606.796875 C 719.601562 607.492188 720.132812 608.148438 720.714844 608.765625 C 721.296875 609.378906 721.925781 609.945312 722.59375 610.460938 L 677.449219 624.128906 C 676.640625 624.394531 676.054688 624.910156 675.6875 625.675781 C 675.359375 626.449219 675.359375 627.226562 675.6875 628 C 675.988281 628.683594 682.964844 645.238281 694.355469 647.5625 C 695.257812 647.765625 696.171875 647.867188 697.097656 647.859375 C 698.972656 647.867188 700.769531 647.511719 702.496094 646.789062 C 699.082031 657.734375 697.390625 668.941406 697.425781 680.40625 C 697.425781 730.402344 730.226562 730.402344 761.894531 730.402344 C 793.5625 730.402344 826.335938 730.402344 826.335938 680.40625 C 826.367188 668.941406 824.675781 657.734375 821.265625 646.789062 C 823.011719 647.578125 824.839844 647.972656 826.753906 647.980469 C 827.683594 647.945312 828.597656 647.808594 829.496094 647.5625 Z M 745.019531 655.722656 C 745.019531 656.289062 744.964844 656.851562 744.851562 657.40625 C 744.742188 657.960938 744.578125 658.503906 744.359375 659.027344 C 744.144531 659.550781 743.875 660.046875 743.5625 660.519531 C 743.246094 660.992188 742.886719 661.425781 742.484375 661.828125 C 742.085938 662.226562 741.648438 662.585938 741.175781 662.902344 C 740.703125 663.214844 740.203125 663.484375 739.679688 663.699219 C 739.15625 663.917969 738.613281 664.082031 738.058594 664.191406 C 737.5 664.300781 736.9375 664.355469 736.371094 664.355469 C 735.804688 664.355469 735.242188 664.300781 734.683594 664.191406 C 734.128906 664.082031 733.585938 663.917969 733.0625 663.699219 C 732.535156 663.484375 732.039062 663.214844 731.566406 662.902344 C 731.09375 662.585938 730.65625 662.226562 730.257812 661.828125 C 729.855469 661.425781 729.496094 660.992188 729.179688 660.519531 C 728.867188 660.046875 728.597656 659.550781 728.382812 659.027344 C 728.164062 658.503906 728 657.960938 727.890625 657.40625 C 727.777344 656.851562 727.722656 656.289062 727.722656 655.722656 C 727.722656 655.15625 727.777344 654.59375 727.890625 654.035156 C 728 653.480469 728.164062 652.941406 728.382812 652.417969 C 728.597656 651.894531 728.867188 651.394531 729.179688 650.925781 C 729.496094 650.453125 729.855469 650.015625 730.257812 649.617188 C 730.65625 649.214844 731.09375 648.855469 731.566406 648.542969 C 732.039062 648.226562 732.535156 647.960938 733.0625 647.742188 C 733.585938 647.527344 734.128906 647.363281 734.683594 647.253906 C 735.242188 647.140625 735.804688 647.085938 736.371094 647.085938 C 736.9375 647.085938 737.5 647.140625 738.058594 647.253906 C 738.613281 647.363281 739.15625 647.527344 739.679688 647.742188 C 740.203125 647.960938 740.703125 648.226562 741.175781 648.542969 C 741.648438 648.855469 742.085938 649.214844 742.484375 649.617188 C 742.886719 650.015625 743.246094 650.453125 743.5625 650.925781 C 743.875 651.394531 744.144531 651.894531 744.359375 652.417969 C 744.578125 652.941406 744.742188 653.480469 744.851562 654.035156 C 744.964844 654.59375 745.019531 655.15625 745.019531 655.722656 Z M 787.421875 647.085938 C 787.988281 647.085938 788.550781 647.140625 789.109375 647.253906 C 789.664062 647.363281 790.207031 647.527344 790.730469 647.742188 C 791.253906 647.960938 791.753906 648.226562 792.226562 648.542969 C 792.699219 648.855469 793.136719 649.214844 793.535156 649.617188 C 793.9375 650.015625 794.296875 650.453125 794.613281 650.925781 C 794.925781 651.394531 795.195312 651.894531 795.410156 652.417969 C 795.628906 652.941406 795.792969 653.480469 795.902344 654.035156 C 796.015625 654.59375 796.070312 655.15625 796.070312 655.722656 C 796.070312 656.289062 796.015625 656.851562 795.902344 657.40625 C 795.792969 657.960938 795.628906 658.503906 795.410156 659.027344 C 795.195312 659.550781 794.925781 660.046875 794.613281 660.519531 C 794.296875 660.992188 793.9375 661.425781 793.535156 661.828125 C 793.136719 662.226562 792.699219 662.585938 792.226562 662.902344 C 791.753906 663.214844 791.253906 663.484375 790.730469 663.699219 C 790.207031 663.917969 789.664062 664.082031 789.109375 664.191406 C 788.550781 664.300781 787.988281 664.355469 787.421875 664.355469 C 786.855469 664.355469 786.292969 664.300781 785.734375 664.191406 C 785.175781 664.082031 784.636719 663.917969 784.113281 663.699219 C 783.585938 663.484375 783.089844 663.214844 782.617188 662.902344 C 782.144531 662.585938 781.707031 662.226562 781.308594 661.828125 C 780.90625 661.425781 780.546875 660.992188 780.230469 660.519531 C 779.914062 660.046875 779.648438 659.550781 779.433594 659.027344 C 779.214844 658.503906 779.050781 657.960938 778.941406 657.40625 C 778.828125 656.851562 778.773438 656.289062 778.773438 655.722656 C 778.765625 655.148438 778.8125 654.578125 778.914062 654.015625 C 779.019531 653.453125 779.175781 652.902344 779.390625 652.371094 C 779.601562 651.839844 779.863281 651.332031 780.179688 650.851562 C 780.492188 650.371094 780.851562 649.929688 781.253906 649.519531 C 781.65625 649.109375 782.09375 648.746094 782.570312 648.421875 C 783.046875 648.101562 783.546875 647.832031 784.078125 647.609375 C 784.605469 647.386719 785.152344 647.21875 785.714844 647.105469 C 786.277344 646.992188 786.847656 646.9375 787.421875 646.9375 Z M 722.027344 597.449219 C 722.03125 596.753906 722.097656 596.066406 722.234375 595.386719 C 722.375 594.707031 722.574219 594.046875 722.839844 593.40625 C 723.109375 592.765625 723.433594 592.160156 723.820312 591.582031 C 724.207031 591.003906 724.644531 590.472656 725.136719 589.980469 C 725.628906 589.492188 726.164062 589.054688 726.738281 588.667969 C 727.316406 588.28125 727.925781 587.957031 728.566406 587.691406 C 729.207031 587.421875 729.871094 587.222656 730.550781 587.085938 C 731.230469 586.949219 731.917969 586.878906 732.613281 586.878906 C 734.066406 586.878906 735.460938 587.167969 736.792969 587.746094 C 738.125 588.328125 739.289062 589.148438 740.277344 590.210938 C 740.554688 590.488281 740.878906 590.703125 741.242188 590.851562 C 741.605469 591.003906 741.984375 591.078125 742.378906 591.078125 C 742.773438 591.078125 743.152344 591.003906 743.515625 590.851562 C 743.878906 590.703125 744.203125 590.488281 744.480469 590.210938 C 744.972656 589.6875 745.511719 589.214844 746.097656 588.800781 C 746.683594 588.386719 747.304688 588.035156 747.964844 587.75 C 748.625 587.460938 749.308594 587.246094 750.011719 587.097656 C 750.714844 586.953125 751.425781 586.878906 752.144531 586.878906 C 752.863281 586.878906 753.574219 586.953125 754.28125 587.097656 C 754.984375 587.246094 755.664062 587.460938 756.324219 587.75 C 756.984375 588.035156 757.605469 588.386719 758.195312 588.800781 C 758.78125 589.214844 759.320312 589.6875 759.808594 590.210938 C 760.085938 590.484375 760.40625 590.695312 760.769531 590.84375 C 761.128906 590.988281 761.507812 591.0625 761.894531 591.0625 C 762.285156 591.0625 762.664062 590.988281 763.023438 590.84375 C 763.386719 590.695312 763.703125 590.484375 763.984375 590.210938 C 764.484375 589.703125 765.027344 589.25 765.617188 588.847656 C 766.210938 588.449219 766.832031 588.109375 767.492188 587.835938 C 768.148438 587.558594 768.828125 587.351562 769.527344 587.210938 C 770.226562 587.070312 770.933594 587 771.648438 587 C 772.359375 587 773.066406 587.070312 773.765625 587.210938 C 774.464844 587.351562 775.144531 587.558594 775.804688 587.835938 C 776.460938 588.109375 777.085938 588.449219 777.675781 588.847656 C 778.265625 589.25 778.8125 589.703125 779.3125 590.210938 C 779.589844 590.488281 779.910156 590.703125 780.277344 590.851562 C 780.640625 591.003906 781.019531 591.078125 781.414062 591.078125 C 781.808594 591.078125 782.1875 591.003906 782.550781 590.851562 C 782.914062 590.703125 783.234375 590.488281 783.515625 590.210938 C 784.503906 589.148438 785.667969 588.328125 787 587.746094 C 788.332031 587.167969 789.726562 586.878906 791.179688 586.878906 C 791.800781 586.875 792.414062 586.929688 793.027344 587.035156 C 793.636719 587.144531 794.234375 587.304688 794.816406 587.515625 C 795.398438 587.726562 795.960938 587.988281 796.496094 588.296875 C 797.035156 588.609375 797.539062 588.964844 798.015625 589.363281 C 798.488281 589.761719 798.925781 590.199219 799.320312 590.675781 C 799.71875 591.148438 800.070312 591.65625 800.378906 592.195312 C 800.6875 592.730469 800.949219 593.292969 801.15625 593.875 C 801.367188 594.457031 801.523438 595.054688 801.628906 595.664062 C 801.734375 596.277344 801.785156 596.890625 801.78125 597.511719 C 801.777344 598.128906 801.71875 598.746094 801.605469 599.355469 C 801.496094 599.964844 801.332031 600.558594 801.113281 601.140625 C 800.898438 601.71875 800.632812 602.277344 800.316406 602.8125 C 800.003906 603.34375 799.644531 603.847656 799.238281 604.316406 C 798.835938 604.789062 798.394531 605.21875 797.917969 605.613281 C 797.4375 606.007812 796.925781 606.355469 796.386719 606.660156 C 795.847656 606.964844 795.28125 607.21875 794.699219 607.421875 L 794.339844 607.421875 C 793.308594 607.734375 792.253906 607.894531 791.179688 607.898438 C 789.726562 607.90625 788.335938 607.621094 787 607.046875 C 785.667969 606.46875 784.507812 605.652344 783.515625 604.59375 C 782.941406 604.011719 782.246094 603.710938 781.429688 603.699219 C 780.597656 603.703125 779.890625 604.003906 779.3125 604.59375 C 778.8125 605.101562 778.265625 605.558594 777.675781 605.957031 C 777.085938 606.359375 776.460938 606.695312 775.804688 606.972656 C 775.144531 607.246094 774.464844 607.457031 773.765625 607.597656 C 773.066406 607.738281 772.359375 607.808594 771.648438 607.808594 C 770.933594 607.808594 770.226562 607.738281 769.527344 607.597656 C 768.828125 607.457031 768.148438 607.246094 767.492188 606.972656 C 766.832031 606.695312 766.210938 606.359375 765.617188 605.957031 C 765.027344 605.558594 764.484375 605.101562 763.984375 604.59375 C 763.703125 604.320312 763.386719 604.113281 763.023438 603.964844 C 762.664062 603.816406 762.285156 603.742188 761.894531 603.742188 C 761.507812 603.742188 761.128906 603.816406 760.769531 603.964844 C 760.40625 604.113281 760.085938 604.320312 759.808594 604.59375 C 759.316406 605.117188 758.777344 605.582031 758.1875 605.996094 C 757.601562 606.40625 756.976562 606.753906 756.320312 607.039062 C 755.660156 607.324219 754.980469 607.535156 754.277344 607.683594 C 753.574219 607.828125 752.863281 607.898438 752.144531 607.898438 C 751.425781 607.898438 750.71875 607.828125 750.015625 607.683594 C 749.3125 607.535156 748.628906 607.324219 747.972656 607.039062 C 747.3125 606.753906 746.6875 606.40625 746.101562 605.996094 C 745.515625 605.582031 744.972656 605.117188 744.480469 604.59375 C 744.203125 604.316406 743.878906 604.101562 743.515625 603.953125 C 743.152344 603.804688 742.773438 603.726562 742.378906 603.726562 C 741.984375 603.726562 741.605469 603.804688 741.242188 603.953125 C 740.878906 604.101562 740.558594 604.316406 740.277344 604.59375 C 739.300781 605.6875 738.148438 606.535156 736.8125 607.140625 C 735.480469 607.75 734.078125 608.0625 732.613281 608.078125 C 731.535156 608.070312 730.484375 607.914062 729.453125 607.601562 L 729.09375 607.601562 C 728.046875 607.234375 727.082031 606.710938 726.195312 606.039062 C 725.3125 605.367188 724.554688 604.574219 723.917969 603.664062 C 723.285156 602.753906 722.808594 601.765625 722.484375 600.703125 C 722.160156 599.644531 722.007812 598.558594 722.027344 597.449219 Z M 761.894531 724.566406 L 759.988281 724.566406 C 759.574219 724.0625 759.363281 723.488281 759.363281 722.839844 L 758.914062 707.445312 L 753.753906 703.902344 C 753.539062 703.824219 753.335938 703.722656 753.144531 703.597656 C 752.953125 703.472656 752.78125 703.332031 752.621094 703.167969 C 752.460938 703.003906 752.324219 702.820312 752.207031 702.625 C 752.089844 702.429688 751.996094 702.222656 751.929688 702.007812 C 751.859375 701.789062 751.8125 701.566406 751.796875 701.339844 C 751.777344 701.113281 751.785156 700.886719 751.820312 700.660156 C 751.851562 700.4375 751.910156 700.21875 751.996094 700.003906 C 752.078125 699.792969 752.1875 699.59375 752.316406 699.40625 C 752.445312 699.21875 752.59375 699.046875 752.765625 698.894531 C 752.933594 698.742188 753.117188 698.609375 753.316406 698.5 C 753.515625 698.386719 753.726562 698.300781 753.945312 698.238281 C 754.164062 698.175781 754.390625 698.136719 754.617188 698.125 C 754.84375 698.113281 755.070312 698.128906 755.296875 698.167969 C 755.519531 698.210938 755.738281 698.273438 755.949219 698.363281 C 756.15625 698.457031 756.355469 698.566406 756.539062 698.703125 C 756.722656 698.839844 756.886719 698.992188 757.035156 699.167969 L 761.894531 702.472656 L 767.382812 699.078125 C 767.539062 698.90625 767.710938 698.757812 767.902344 698.625 C 768.09375 698.496094 768.296875 698.390625 768.515625 698.308594 C 768.730469 698.222656 768.953125 698.167969 769.183594 698.136719 C 769.410156 698.105469 769.640625 698.101562 769.871094 698.121094 C 770.101562 698.144531 770.324219 698.195312 770.542969 698.269531 C 770.765625 698.34375 770.972656 698.441406 771.167969 698.5625 C 771.363281 698.6875 771.542969 698.828125 771.703125 698.996094 C 771.867188 699.160156 772.007812 699.339844 772.128906 699.535156 C 772.25 699.734375 772.347656 699.941406 772.417969 700.160156 C 772.488281 700.382812 772.535156 700.605469 772.554688 700.835938 C 772.574219 701.066406 772.566406 701.296875 772.53125 701.523438 C 772.5 701.753906 772.4375 701.972656 772.355469 702.1875 C 772.269531 702.402344 772.160156 702.605469 772.027344 702.792969 C 771.894531 702.984375 771.742188 703.15625 771.570312 703.308594 C 771.394531 703.460938 771.207031 703.59375 771.003906 703.703125 C 770.800781 703.8125 770.589844 703.898438 770.363281 703.960938 L 764.878906 707.503906 L 765.175781 722.71875 C 765.179688 723.40625 764.972656 724.023438 764.550781 724.566406 Z M 761.894531 724.566406 " fill-opacity="1" fill-rule="nonzero"/></g></svg>